<svg width="76" height="16" viewBox="0 0 76 16" fill="none" xmlns="http://www.w3.org/2000/svg">
<path d="M10.179 5.09943H12.8636C12.4162 2.24432 9.9446 0.255681 6.72727 0.255681C2.92045 0.255681 0.0653409 3.05398 0.0653409 7.74148C0.0653409 12.3438 2.79261 15.1989 6.8054 15.1989C10.4062 15.1989 12.9844 12.8835 12.9844 9.13352V7.38636H7.08239V9.44602H10.4347C10.392 11.5199 9.0071 12.8338 6.8196 12.8338C4.38352 12.8338 2.71449 11.0085 2.71449 7.71307C2.71449 4.43892 4.41193 2.62074 6.76278 2.62074C8.51705 2.62074 9.71023 3.55824 10.179 5.09943ZM14.5323 0.454545V15H17.0607V4.9858H17.1957L21.2156 14.9574H23.1048L27.1246 5.0071H27.2596V15H29.788V0.454545H26.5636L22.2454 10.9943H22.0749L17.7567 0.454545H14.5323ZM34.6829 15.2202C36.3945 15.2202 37.4173 14.4176 37.886 13.5014H37.9712V15H40.4428V7.69886C40.4428 4.81534 38.092 3.94886 36.011 3.94886C33.717 3.94886 31.9556 4.97159 31.3874 6.96023L33.788 7.30114C34.0437 6.5554 34.7681 5.91619 36.0252 5.91619C37.2184 5.91619 37.8718 6.52699 37.8718 7.59943V7.64205C37.8718 8.38068 37.0977 8.41619 35.1729 8.62216C33.0565 8.84943 31.0323 9.48153 31.0323 11.9389C31.0323 14.0838 32.6019 15.2202 34.6829 15.2202ZM35.3505 13.331C34.2781 13.331 33.511 12.8409 33.511 11.8963C33.511 10.9091 34.3704 10.4972 35.521 10.3338C36.1957 10.2415 37.5451 10.071 37.8789 9.80114V11.0866C37.8789 12.3011 36.8988 13.331 35.3505 13.331ZM42.0281 15H44.5991V8.58665C44.5991 7.2017 45.6431 6.22159 47.0565 6.22159C47.4897 6.22159 48.0295 6.29972 48.2496 6.37074V4.00568C48.0153 3.96307 47.6104 3.93466 47.3263 3.93466C46.0763 3.93466 45.0323 4.64489 44.6346 5.90909H44.521V4.09091H42.0281V15ZM48.9577 15H51.5288V11.3352L52.4663 10.3338L55.8043 15H58.8796L54.4052 8.79972L58.631 4.09091H55.6268L51.7063 8.47301H51.5288V0.454545H48.9577V15ZM63.7248 15.2131C66.2674 15.2131 68.0146 13.9702 68.4691 12.0739L66.0685 11.804C65.7205 12.7273 64.8683 13.2102 63.7603 13.2102C62.0984 13.2102 60.9975 12.1165 60.9762 10.2486H68.5756V9.46023C68.5756 5.6321 66.2745 3.94886 63.5898 3.94886C60.4648 3.94886 58.4265 6.2429 58.4265 9.60938C58.4265 13.0327 60.4364 15.2131 63.7248 15.2131ZM60.9833 8.51562C61.0614 7.12358 62.0913 5.9517 63.6254 5.9517C65.1026 5.9517 66.0969 7.03125 66.1112 8.51562H60.9833ZM75.1982 4.09091H73.0462V1.47727H70.4751V4.09091H68.9268V6.07955H70.4751V12.1449C70.4609 14.1974 71.9524 15.206 73.8842 15.1491C74.6158 15.1278 75.12 14.9858 75.397 14.8935L74.9638 12.8835C74.8217 12.919 74.5305 12.983 74.2109 12.983C73.5646 12.983 73.0462 12.7557 73.0462 11.7188V6.07955H75.1982V4.09091Z" fill="#2E3456"/>
</svg>
